<?xml version="1.0" encoding="UTF-8" standalone="no"?>
<!-- Created with Inkscape (http://www.inkscape.org/) -->

<svg
   xmlns:dc="http://purl.org/dc/elements/1.1/"
   xmlns:cc="http://creativecommons.org/ns#"
   xmlns:rdf="http://www.w3.org/1999/02/22-rdf-syntax-ns#"
   xmlns:svg="http://www.w3.org/2000/svg"
   xmlns="http://www.w3.org/2000/svg"
   xmlns:sodipodi="http://sodipodi.sourceforge.net/DTD/sodipodi-0.dtd"
   xmlns:inkscape="http://www.inkscape.org/namespaces/inkscape"
   width="1171.4333"
   height="387.54849"
   viewBox="0 0 37.519218 116.68127"
   version="1.1"
   id="svg8"
   sodipodi:docname="pattern3.svg"
   inkscape:version="0.92.2 (5c3e80d, 2017-08-06)">
  <defs
     id="defs2" />
  <sodipodi:namedview
     id="base"
     pagecolor="#ffffff"
     bordercolor="#666666"
     borderopacity="1.0"
     inkscape:pageopacity="0.0"
     inkscape:pageshadow="2"
     inkscape:zoom="0.70710678"
     inkscape:cx="473.50721"
     inkscape:cy="90.429531"
     inkscape:document-units="px"
     inkscape:current-layer="layer1"
     showgrid="false"
     units="px"
     showborder="true"
     inkscape:window-width="1841"
     inkscape:window-height="1051"
     inkscape:window-x="-9"
     inkscape:window-y="-9"
     inkscape:window-maximized="1"
     inkscape:pagecheckerboard="true"
     fit-margin-top="0"
     fit-margin-left="0"
     fit-margin-right="0"
     fit-margin-bottom="0"
     inkscape:showpageshadow="false"
     borderlayer="false" />
  <metadata
     id="metadata5">
    <rdf:RDF>
      <cc:Work
         rdf:about="">
        <dc:format>image/svg+xml</dc:format>
        <dc:type
           rdf:resource="http://purl.org/dc/dcmitype/StillImage" />
        <dc:title></dc:title>
      </cc:Work>
    </rdf:RDF>
  </metadata>
  <g
     inkscape:label="Layer 1"
     inkscape:groupmode="layer"
     id="layer1"
     height="279"
     width="1171">
    <g
       id="g921"
       inkscape:export-xdpi="60.697674"
       inkscape:export-ydpi="60.697674"
       height="279"
       transform="translate(125.1479,-78.052105)">
      <path
         id="rect919"
         style="opacity:1;fill:#ffffff;fill-opacity:1;fill-rule:nonzero;stroke:none;stroke-width:5.92666626;stroke-linecap:round;stroke-linejoin:round;stroke-miterlimit:4;stroke-dasharray:none;stroke-opacity:1;paint-order:normal"
         d="M 58.472885,77.660385 H 69.849958 V 194.34165 H 58.472885 Z m -11.377075,0 H 58.472883 V 183.75832 H 47.09581 Z m -11.377075,8e-6 H 47.095808 V 166.03125 H 35.718735 Z m -11.377077,0 H 35.718731 V 155.71249 H 24.341658 Z m -11.377075,7e-6 h 11.377074 v 68.79169 H 12.964583 Z m -11.3770827,0 H 12.964574 v 92.60419 H 1.5875003 Z m -11.3770749,0 H 1.5874987 v 81.75626 H -9.7895746 Z m -11.3770764,0 H -9.7895775 V 166.825 H -21.166651 Z m -11.377073,0 h 11.377073 v 57.15001 h -11.377073 z m -11.377167,-1.5e-5 h 11.377073 V 176.0854 h -11.377073 z m -11.377075,0 h 11.377073 V 189.31457 h -11.377073 z m -11.377075,0 h 11.377073 v 84.931265 h -11.377073 z m -11.377075,0 h 11.377073 V 178.46665 h -11.377073 z m -11.377076,0 h 11.377074 V 183.75832 h -11.377074 z m -11.377078,8e-6 h 11.377077 v 88.370857 h -11.377077 z m -11.37707,0 h 11.37707 v 78.052097 h -11.37707 z m -11.37708,7e-6 h 11.37708 v 68.79169 h -11.37708 z m -11.37708,0 h 11.37707 v 92.60419 h -11.37707 z m -11.37708,0 h 11.37708 v 81.75626 h -11.37708 z m -11.37707,0 h 11.37707 v 89.1646 h -11.37707 z m -11.37708,0 h 11.37708 v 100.27709 h -11.37708 z m -11.37713,-1.5e-5 h 11.37707 V 194.34165 h -11.37707 z m -11.37708,0 h 11.37707 V 183.75832 h -11.37707 z m -11.37708,8e-6 h 11.37708 v 88.370857 h -11.37708 z m -11.37707,0 h 11.37707 v 78.052097 h -11.37707 z m -11.37708,7e-6 h 11.37708 v 68.79169 h -11.37708 z m -11.37708,0 h 11.37707 v 92.60419 h -11.37707 z m -11.37707,0 h 11.37707 v 81.75626 h -11.37707 z m -11.37708,0 h 11.37707 v 89.1646 h -11.37707 z m -11.37708,0 h 11.37708 v 57.15001 h -11.37708 z m -11.37716,-1.5e-5 h 11.37707 V 176.0854 h -11.37707 z"
         inkscape:export-xdpi="60.697674"
         inkscape:export-ydpi="60.697674"
         inkscape:connector-curvature="0" />
    </g>
  </g>
</svg>
